<?xml version="1.0" encoding="UTF-8"?>
<svg version="1.1" xmlns="http://www.w3.org/2000/svg" width="32" height="32">
<path d="M0 0 C4.8846525 2.26787438 7.73212562 5.1153475 10 10 C10.75381535 15.5997712 10.77303575 20.33499991 8.375 25.5 C3.80134327 30.3143755 0.6912538 32.25156236 -6 32.5 C-12.6912538 32.25156236 -15.80134327 30.3143755 -20.375 25.5 C-22.77303575 20.33499991 -22.75381535 15.5997712 -22 10 C-17.52212837 0.3553534 -9.85292056 -1.32635469 0 0 Z " fill="#0329FE" transform="translate(22,0)"/>
<path d="M0 0 C4.88169605 2.26650174 7.59625754 5.19251507 10 10 C10.30925996 12.76338734 10.19274495 15.20519828 10 18 C9.67 17.34 9.34 16.68 9 16 C2.13012212 14.61029188 -5.08754557 14.94617769 -12.0546875 15.16015625 C-15.12053917 14.99344548 -17.23835225 14.29929922 -20 13 C-20 14.32 -20 15.64 -20 17 C-20.66 17 -21.32 17 -22 17 C-22.45763495 11.27956317 -21.71653644 8.40116157 -18 4 C-12.72867143 -1.00776214 -6.89190982 -0.92775709 0 0 Z " fill="#0027FE" transform="translate(22,0)"/>
<path d="M0 0 C0.64324219 0.0721875 1.28648438 0.144375 1.94921875 0.21875 C9.31967507 0.97577262 16.59465929 1.10595877 24 1 C23.67 1.99 23.34 2.98 23 4 C15.3644969 5.35742277 7.74154033 5 0 5 C0 3.35 0 1.7 0 0 Z " fill="#6E83FF" transform="translate(2,13)"/>
<path d="M0 0 C3.63 0 7.26 0 11 0 C10.67 0.99 10.34 1.98 10 3 C6.33694766 3.74926071 3.57644848 4.2380014 0 3 C0 2.01 0 1.02 0 0 Z " fill="#8094FF" transform="translate(15,14)"/>
</svg>
