<svg width="16" height="16" viewBox="0 0 16 16" fill="none" xmlns="http://www.w3.org/2000/svg">
<path d="M4.68411 0H10.9296C12.1719 0 13.3633 0.493503 14.2418 1.37194C15.1202 2.25039 15.6137 3.44181 15.6137 4.68411V10.9296C15.6137 12.1719 15.1202 13.3633 14.2418 14.2418C13.3633 15.1202 12.1719 15.6137 10.9296 15.6137H4.68411C3.44181 15.6137 2.25039 15.1202 1.37194 14.2418C0.493503 13.3633 0 12.1719 0 10.9296L0 4.68411C0 3.44181 0.493503 2.25039 1.37194 1.37194C2.25039 0.493503 3.44181 0 4.68411 0ZM9.36823 7.02617C9.16117 7.02617 8.9626 7.10842 8.8162 7.25483C8.66979 7.40123 8.58754 7.5998 8.58754 7.80685C8.58754 8.0139 8.66979 8.21247 8.8162 8.35888C8.9626 8.50529 9.16117 8.58754 9.36823 8.58754H11.7103C11.9173 8.58754 12.1159 8.50529 12.2623 8.35888C12.4087 8.21247 12.491 8.0139 12.491 7.80685C12.491 7.5998 12.4087 7.40123 12.2623 7.25483C12.1159 7.10842 11.9173 7.02617 11.7103 7.02617H9.36823ZM7.80685 10.1489C7.5998 10.1489 7.40123 10.2312 7.25483 10.3776C7.10842 10.524 7.02617 10.7225 7.02617 10.9296C7.02617 11.1366 7.10842 11.3352 7.25483 11.4816C7.40123 11.628 7.5998 11.7103 7.80685 11.7103H11.7103C11.9173 11.7103 12.1159 11.628 12.2623 11.4816C12.4087 11.3352 12.491 11.1366 12.491 10.9296C12.491 10.7225 12.4087 10.524 12.2623 10.3776C12.1159 10.2312 11.9173 10.1489 11.7103 10.1489H7.80685ZM7.80685 3.90343C7.5998 3.90343 7.40123 3.98568 7.25483 4.13208C7.10842 4.27849 7.02617 4.47706 7.02617 4.68411C7.02617 4.89116 7.10842 5.08973 7.25483 5.23614C7.40123 5.38255 7.5998 5.4648 7.80685 5.4648H11.7103C11.9173 5.4648 12.1159 5.38255 12.2623 5.23614C12.4087 5.08973 12.491 4.89116 12.491 4.68411C12.491 4.47706 12.4087 4.27849 12.2623 4.13208C12.1159 3.98568 11.9173 3.90343 11.7103 3.90343H7.80685ZM4.54983 7.99656L3.99789 7.44462C3.92587 7.37005 3.83973 7.31058 3.74448 7.26966C3.64924 7.22875 3.54679 7.20721 3.44314 7.20631C3.33948 7.20541 3.23668 7.22516 3.14073 7.26442C3.04479 7.30367 2.95762 7.36164 2.88432 7.43494C2.81102 7.50824 2.75306 7.59541 2.7138 7.69135C2.67455 7.78729 2.6548 7.89009 2.6557 7.99375C2.6566 8.09741 2.67813 8.19985 2.71905 8.2951C2.75996 8.39034 2.81944 8.47649 2.894 8.5485L3.99789 9.6524C4.07039 9.72498 4.1565 9.78256 4.25127 9.82185C4.34604 9.86114 4.44763 9.88136 4.55022 9.88136C4.65282 9.88136 4.75441 9.86114 4.84918 9.82185C4.94395 9.78256 5.03006 9.72498 5.10256 9.6524L7.31034 7.44462C7.45693 7.29823 7.53937 7.09961 7.53951 6.89244C7.53966 6.68528 7.4575 6.48654 7.31112 6.33995C7.16473 6.19335 6.96611 6.11092 6.75895 6.11077C6.55178 6.11063 6.35304 6.19278 6.20645 6.33917L4.54983 7.99578V7.99656Z" fill="black"/>
</svg>
