<svg width="58" height="56" viewBox="0 0 58 56" fill="none" xmlns="http://www.w3.org/2000/svg">
<g filter="url(#filter0_d_367_2140)">
<rect x="6" y="2" width="45.7212" height="44.6743" rx="12" fill="#0028FF"/>
</g>
<path d="M22.6087 10H34.087C36.3701 10 38.5598 10.907 40.1742 12.5214C41.7887 14.1359 42.6957 16.3255 42.6957 18.6087V30.087C42.6957 32.3701 41.7887 34.5598 40.1742 36.1742C38.5598 37.7887 36.3701 38.6957 34.087 38.6957H22.6087C20.3255 38.6957 18.1359 37.7887 16.5214 36.1742C14.907 34.5598 14 32.3701 14 30.087V18.6087C14 16.3255 14.907 14.1359 16.5214 12.5214C18.1359 10.907 20.3255 10 22.6087 10ZM31.2174 22.9131C30.8369 22.9131 30.4719 23.0642 30.2029 23.3333C29.9338 23.6024 29.7826 23.9673 29.7826 24.3478C29.7826 24.7284 29.9338 25.0933 30.2029 25.3624C30.4719 25.6315 30.8369 25.7826 31.2174 25.7826H35.5218C35.9023 25.7826 36.2672 25.6315 36.5363 25.3624C36.8054 25.0933 36.9565 24.7284 36.9565 24.3478C36.9565 23.9673 36.8054 23.6024 36.5363 23.3333C36.2672 23.0642 35.9023 22.9131 35.5218 22.9131H31.2174ZM28.3478 28.6522C27.9673 28.6522 27.6024 28.8034 27.3333 29.0724C27.0642 29.3415 26.9131 29.7064 26.9131 30.087C26.9131 30.4675 27.0642 30.8324 27.3333 31.1015C27.6024 31.3706 27.9673 31.5218 28.3478 31.5218H35.5218C35.9023 31.5218 36.2672 31.3706 36.5363 31.1015C36.8054 30.8324 36.9565 30.4675 36.9565 30.087C36.9565 29.7064 36.8054 29.3415 36.5363 29.0724C36.2672 28.8034 35.9023 28.6522 35.5218 28.6522H28.3478ZM28.3478 17.1739C27.9673 17.1739 27.6024 17.3251 27.3333 17.5942C27.0642 17.8632 26.9131 18.2282 26.9131 18.6087C26.9131 18.9892 27.0642 19.3542 27.3333 19.6232C27.6024 19.8923 27.9673 20.0435 28.3478 20.0435H35.5218C35.9023 20.0435 36.2672 19.8923 36.5363 19.6232C36.8054 19.3542 36.9565 18.9892 36.9565 18.6087C36.9565 18.2282 36.8054 17.8632 36.5363 17.5942C36.2672 17.3251 35.9023 17.1739 35.5218 17.1739H28.3478ZM22.3619 24.6965L21.3475 23.6821C21.2152 23.5451 21.0569 23.4358 20.8818 23.3606C20.7068 23.2854 20.5185 23.2458 20.328 23.2441C20.1375 23.2425 19.9485 23.2788 19.7722 23.3509C19.5959 23.4231 19.4357 23.5296 19.301 23.6643C19.1662 23.799 19.0597 23.9592 18.9876 24.1356C18.9154 24.3119 18.8791 24.5008 18.8808 24.6913C18.8824 24.8818 18.922 25.0701 18.9972 25.2452C19.0724 25.4202 19.1817 25.5785 19.3187 25.7109L21.3475 27.7397C21.4808 27.8731 21.639 27.9789 21.8132 28.0511C21.9874 28.1233 22.1741 28.1605 22.3626 28.1605C22.5512 28.1605 22.7379 28.1233 22.9121 28.0511C23.0863 27.9789 23.2445 27.8731 23.3777 27.7397L27.4353 23.6821C27.7047 23.4131 27.8562 23.048 27.8565 22.6673C27.8568 22.2865 27.7058 21.9213 27.4368 21.6519C27.1677 21.3825 26.8027 21.231 26.4219 21.2307C26.0412 21.2304 25.6759 21.3814 25.4065 21.6504L22.3619 24.6951V24.6965Z" fill="white"/>
<defs>
<filter id="filter0_d_367_2140" x="0.5" y="-2.38419e-07" width="56.7212" height="55.6743" filterUnits="userSpaceOnUse" color-interpolation-filters="sRGB">
<feFlood flood-opacity="0" result="BackgroundImageFix"/>
<feColorMatrix in="SourceAlpha" type="matrix" values="0 0 0 0 0 0 0 0 0 0 0 0 0 0 0 0 0 0 127 0" result="hardAlpha"/>
<feOffset dy="3.5"/>
<feGaussianBlur stdDeviation="2.75"/>
<feColorMatrix type="matrix" values="0 0 0 0 0 0 0 0 0 0 0 0 0 0 0 0 0 0 0.02 0"/>
<feBlend mode="normal" in2="BackgroundImageFix" result="effect1_dropShadow_367_2140"/>
<feBlend mode="normal" in="SourceGraphic" in2="effect1_dropShadow_367_2140" result="shape"/>
</filter>
</defs>
</svg>
