<svg width="17" height="19" viewBox="0 0 17 19" fill="none" xmlns="http://www.w3.org/2000/svg">
<path d="M2.45556 0C1.8043 0 1.17972 0.260231 0.719215 0.723446C0.258709 1.18666 0 1.81492 0 2.47V7.03C0 7.35436 0.0635148 7.67555 0.186918 7.97523C0.310321 8.2749 0.491196 8.54719 0.719215 8.77655C1.17972 9.23977 1.8043 9.5 2.45556 9.5H5.1C5.75125 9.5 6.37583 9.23977 6.83634 8.77655C7.29685 8.31334 7.55556 7.68508 7.55556 7.03V2.47C7.55556 1.81492 7.29685 1.18666 6.83634 0.723446C6.37583 0.260231 5.75125 0 5.1 0H2.45556ZM2.45556 11.4C1.8043 11.4 1.17972 11.6602 0.719215 12.1234C0.258709 12.5867 0 13.2149 0 13.87V16.53C0 17.1851 0.258709 17.8133 0.719215 18.2766C1.17972 18.7398 1.8043 19 2.45556 19H5.1C5.75125 19 6.37583 18.7398 6.83634 18.2766C7.29685 17.8133 7.55556 17.1851 7.55556 16.53V13.87C7.55556 13.2149 7.29685 12.5867 6.83634 12.1234C6.37583 11.6602 5.75125 11.4 5.1 11.4H2.45556ZM11.9 0C11.2487 0 10.6242 0.260231 10.1637 0.723446C9.70315 1.18666 9.44444 1.81492 9.44444 2.47V5.13C9.44444 5.78508 9.70315 6.41334 10.1637 6.87655C10.6242 7.33977 11.2487 7.6 11.9 7.6H14.5444C14.8669 7.6 15.1862 7.53611 15.4841 7.41198C15.7821 7.28785 16.0528 7.10591 16.2808 6.87655C16.5088 6.64719 16.6897 6.3749 16.8131 6.07523C16.9365 5.77555 17 5.45437 17 5.13V2.47C17 2.14563 16.9365 1.82445 16.8131 1.52477C16.6897 1.2251 16.5088 0.952807 16.2808 0.723446C16.0528 0.494085 15.7821 0.312147 15.4841 0.188018C15.1862 0.0638884 14.8669 0 14.5444 0H11.9ZM11.9 9.5C11.2487 9.5 10.6242 9.76023 10.1637 10.2234C9.70315 10.6867 9.44444 11.3149 9.44444 11.97V16.53C9.44444 17.1851 9.70315 17.8133 10.1637 18.2766C10.6242 18.7398 11.2487 19 11.9 19H14.5444C14.8669 19 15.1862 18.9361 15.4841 18.812C15.7821 18.6879 16.0528 18.5059 16.2808 18.2766C16.5088 18.0472 16.6897 17.7749 16.8131 17.4752C16.9365 17.1756 17 16.8544 17 16.53V11.97C17 11.6456 16.9365 11.3244 16.8131 11.0248C16.6897 10.7251 16.5088 10.4528 16.2808 10.2234C16.0528 9.99409 15.7821 9.81215 15.4841 9.68802C15.1862 9.56389 14.8669 9.5 14.5444 9.5H11.9Z" fill="#0028FF"/>
</svg>
