<svg width="17" height="16" viewBox="0 0 17 16" fill="none" xmlns="http://www.w3.org/2000/svg">
<path d="M15.2041 8.46594C15.2041 7.92636 15.1564 7.53261 15.0533 7.12428H8.34697V9.55967H12.2834C12.2041 10.1649 11.7755 11.0764 10.8231 11.6888L10.8098 11.7704L12.9302 13.2796L13.0771 13.293C14.4263 12.1482 15.2041 10.4638 15.2041 8.46594Z" fill="#4285F4"/>
<path d="M8.34608 14.8827C10.2746 14.8827 11.8936 14.2993 13.0762 13.2931L10.8222 11.6889C10.2191 12.0753 9.40954 12.3451 8.34608 12.3451C6.45721 12.3451 4.85405 11.2004 4.28257 9.61806L4.19881 9.6246L1.99397 11.1923L1.96513 11.266C3.13972 13.4097 5.55241 14.8827 8.34608 14.8827Z" fill="#34A853"/>
<path d="M4.28372 9.61814C4.13293 9.20981 4.04566 8.77228 4.04566 8.32022C4.04566 7.86811 4.13293 7.43062 4.27579 7.0223L4.2718 6.93533L2.03932 5.34244L1.96628 5.37436C1.48217 6.26395 1.20439 7.26293 1.20439 8.32022C1.20439 9.37751 1.48217 10.3764 1.96628 11.266L4.28372 9.61814Z" fill="#FBBC05"/>
<path d="M8.34611 4.29517C9.68737 4.29517 10.5921 4.82746 11.108 5.27228L13.1239 3.46394C11.8858 2.40665 10.2747 1.75769 8.34611 1.75769C5.55243 1.75769 3.13973 3.2306 1.96513 5.37433L4.27465 7.02227C4.85407 5.43998 6.45723 4.29517 8.34611 4.29517Z" fill="#EB4335"/>
</svg>
