<svg width="16" height="16" viewBox="0 0 16 16" fill="none" xmlns="http://www.w3.org/2000/svg">
<path d="M0.785324 16C0.563074 16 0.376787 15.9227 0.226461 15.768C0.0761347 15.6133 0.000647957 15.4213 0 15.192V6.816C0 6.578 0.0754868 6.38267 0.226461 6.23C0.377435 6.07734 0.563722 6.00067 0.785324 6H3.25307C3.47532 6 3.6616 6.07734 3.81193 6.232C3.96226 6.38734 4.03742 6.57934 4.03742 6.808V15.185C4.03742 15.4223 3.96226 15.6173 3.81193 15.77C3.6616 15.9233 3.47532 16 3.25307 16H0.785324ZM6.58583 16C6.35646 16 6.16725 15.9227 6.01822 15.768C5.86919 15.6127 5.79468 15.4207 5.79468 15.192V0.808004C5.79468 0.579338 5.86984 0.387337 6.02017 0.232004C6.17049 0.0766708 6.3571 -0.000662393 6.58 4.27351e-06H9.41514C9.64451 4.27351e-06 9.83371 0.0773375 9.98274 0.232004C10.1318 0.387337 10.2063 0.579338 10.2063 0.808004V15.192C10.2063 15.4213 10.1308 15.6133 9.97983 15.768C9.82885 15.9227 9.64257 16 9.42097 16H6.58583ZM12.7479 16C12.525 16 12.3384 15.9233 12.1881 15.77C12.0377 15.6167 11.9626 15.4267 11.9626 15.2V8.8C11.9626 8.57334 12.0377 8.38334 12.1881 8.23C12.3384 8.07667 12.525 8 12.7479 8H15.2147C15.4369 8 15.6235 8.07667 15.7745 8.23C15.9255 8.38334 16.0006 8.57334 16 8.8V15.2C16 15.4267 15.9248 15.6167 15.7745 15.77C15.6242 15.9233 15.4376 16 15.2147 16H12.7479Z" fill="black"/>
</svg>
