<svg width="64" height="12" viewBox="0 0 64 12" fill="none" xmlns="http://www.w3.org/2000/svg">
<path d="M3.74 9.033C3.32933 9.033 2.915 8.99267 2.497 8.912C2.08633 8.824 1.705 8.69933 1.353 8.538C1.00833 8.36933 0.729667 8.16767 0.517 7.933C0.304333 7.691 0.198 7.41233 0.198 7.097C0.198 6.69367 0.326333 6.371 0.583 6.129C0.839667 5.887 1.14033 5.77333 1.485 5.788C1.75633 5.79533 2.02767 5.854 2.299 5.964C2.57033 6.06667 2.84533 6.16933 3.124 6.272C3.41 6.37467 3.696 6.426 3.982 6.426C4.268 6.426 4.466 6.38933 4.576 6.316C4.686 6.24267 4.741 6.14367 4.741 6.019C4.741 5.87233 4.664 5.75133 4.51 5.656C4.356 5.56067 4.16167 5.48733 3.927 5.436L3.388 5.304C2.83067 5.172 2.332 5.02533 1.892 4.864C1.452 4.69533 1.10367 4.47533 0.847 4.204C0.597667 3.92533 0.473 3.555 0.473 3.093C0.473 2.587 0.612333 2.17633 0.891 1.861C1.16967 1.53833 1.54733 1.30367 2.024 1.157C2.50067 1.01033 3.03233 0.937 3.619 0.937C4.22033 0.937 4.74833 0.999333 5.203 1.124C5.65767 1.24867 6.00967 1.42833 6.259 1.663C6.51567 1.89767 6.644 2.18367 6.644 2.521C6.644 2.88033 6.545 3.16267 6.347 3.368C6.15633 3.566 5.89967 3.665 5.577 3.665C5.36433 3.665 5.14067 3.62833 4.906 3.555C4.67867 3.48167 4.43667 3.412 4.18 3.346C3.93067 3.27267 3.663 3.236 3.377 3.236C3.12033 3.236 2.926 3.27633 2.794 3.357C2.662 3.43033 2.596 3.52933 2.596 3.654C2.596 3.808 2.684 3.92167 2.86 3.995C3.036 4.06833 3.32567 4.15633 3.729 4.259L4.345 4.402C4.851 4.52667 5.29467 4.677 5.676 4.853C6.05733 5.029 6.35433 5.26 6.567 5.546C6.77967 5.832 6.886 6.206 6.886 6.668C6.886 7.22533 6.754 7.68 6.49 8.032C6.226 8.37667 5.85933 8.62967 5.39 8.791C4.92067 8.95233 4.37067 9.033 3.74 9.033ZM10.8756 9C10.4723 9 10.135 8.87533 9.86365 8.626C9.59965 8.37667 9.43098 8.054 9.35765 7.658H9.15965V10.188C9.15965 10.4887 9.07532 10.7417 8.90665 10.947C8.73798 11.1597 8.48132 11.266 8.13665 11.266C7.80665 11.266 7.54998 11.1597 7.36665 10.947C7.19065 10.7417 7.10265 10.4813 7.10265 10.166V6.052C7.10265 5.68533 7.08798 5.37733 7.05865 5.128C7.03665 4.87133 7.01465 4.64033 6.99265 4.435C6.96332 4.127 7.02565 3.86667 7.17965 3.654C7.33365 3.434 7.58298 3.302 7.92765 3.258C8.37498 3.19933 8.69032 3.28 8.87365 3.5C9.06432 3.71267 9.15965 4.04633 9.15965 4.501V5.029L9.20365 5.04C9.24032 4.754 9.32465 4.47533 9.45665 4.204C9.59598 3.92533 9.79032 3.698 10.0396 3.522C10.289 3.33867 10.6043 3.247 10.9856 3.247C11.6236 3.247 12.0966 3.50367 12.4046 4.017C12.72 4.523 12.8776 5.20133 12.8776 6.052C12.8776 8.01733 12.2103 9 10.8756 9ZM9.11565 6.03C9.11565 6.14733 9.13032 6.239 9.15965 6.305C9.20365 6.44433 9.29532 6.547 9.43465 6.613C9.58132 6.67167 9.79765 6.701 10.0836 6.701C10.4503 6.701 10.6996 6.646 10.8316 6.536C10.971 6.426 11.0406 6.25733 11.0406 6.03C11.0406 5.79533 10.9746 5.62667 10.8426 5.524C10.7106 5.414 10.4613 5.359 10.0946 5.359C9.80132 5.359 9.58132 5.392 9.43465 5.458C9.29532 5.51667 9.20365 5.61567 9.15965 5.755C9.13032 5.821 9.11565 5.91267 9.11565 6.03ZM12.9455 6.14C12.9455 5.56067 13.0592 5.051 13.2865 4.611C13.5212 4.171 13.8512 3.82633 14.2765 3.577C14.7092 3.32767 15.2225 3.203 15.8165 3.203C16.2785 3.203 16.6929 3.28733 17.0595 3.456C17.4335 3.62467 17.7269 3.852 17.9395 4.138C18.1522 4.41667 18.2585 4.72467 18.2585 5.062C18.2585 5.414 18.1559 5.66333 17.9505 5.81C17.7452 5.95667 17.4409 6.03 17.0375 6.03H14.7275C14.7275 6.22067 14.8009 6.37833 14.9475 6.503C15.1015 6.62767 15.3582 6.69 15.7175 6.69C15.9009 6.69 16.0695 6.67167 16.2235 6.635C16.3849 6.59833 16.5462 6.56533 16.7075 6.536C16.8762 6.49933 17.0632 6.481 17.2685 6.481C17.5619 6.481 17.8039 6.58733 17.9945 6.8C18.1852 7.00533 18.2805 7.29133 18.2805 7.658C18.2805 8.09067 18.0569 8.428 17.6095 8.67C17.1695 8.912 16.5902 9.033 15.8715 9.033C15.3655 9.033 14.8889 8.934 14.4415 8.736C14.0015 8.538 13.6422 8.22633 13.3635 7.801C13.0849 7.36833 12.9455 6.81467 12.9455 6.14ZM16.5095 5.667C16.6195 5.667 16.6562 5.61567 16.6195 5.513C16.5902 5.41033 16.5022 5.304 16.3555 5.194C16.2089 5.084 15.9962 5.029 15.7175 5.029C15.3949 5.029 15.1529 5.09867 14.9915 5.238C14.8375 5.37733 14.7605 5.52033 14.7605 5.667H16.5095ZM18.4056 6.14C18.4056 5.56067 18.5192 5.051 18.7466 4.611C18.9812 4.171 19.3112 3.82633 19.7366 3.577C20.1692 3.32767 20.6826 3.203 21.2766 3.203C21.7386 3.203 22.1529 3.28733 22.5196 3.456C22.8936 3.62467 23.1869 3.852 23.3996 4.138C23.6122 4.41667 23.7186 4.72467 23.7186 5.062C23.7186 5.414 23.6159 5.66333 23.4106 5.81C23.2052 5.95667 22.9009 6.03 22.4976 6.03H20.1876C20.1876 6.22067 20.2609 6.37833 20.4076 6.503C20.5616 6.62767 20.8182 6.69 21.1776 6.69C21.3609 6.69 21.5296 6.67167 21.6836 6.635C21.8449 6.59833 22.0062 6.56533 22.1676 6.536C22.3362 6.49933 22.5232 6.481 22.7286 6.481C23.0219 6.481 23.2639 6.58733 23.4546 6.8C23.6452 7.00533 23.7406 7.29133 23.7406 7.658C23.7406 8.09067 23.5169 8.428 23.0696 8.67C22.6296 8.912 22.0502 9.033 21.3316 9.033C20.8256 9.033 20.3489 8.934 19.9016 8.736C19.4616 8.538 19.1022 8.22633 18.8236 7.801C18.5449 7.36833 18.4056 6.81467 18.4056 6.14ZM21.9696 5.667C22.0796 5.667 22.1162 5.61567 22.0796 5.513C22.0502 5.41033 21.9622 5.304 21.8156 5.194C21.6689 5.084 21.4562 5.029 21.1776 5.029C20.8549 5.029 20.6129 5.09867 20.4516 5.238C20.2976 5.37733 20.2206 5.52033 20.2206 5.667H21.9696ZM25.8676 9C24.533 9 23.8656 8.01733 23.8656 6.052C23.8656 5.20133 24.0306 4.523 24.3606 4.017C24.6906 3.50367 25.1856 3.247 25.8456 3.247C26.205 3.247 26.4946 3.32033 26.7146 3.467C26.942 3.61367 27.118 3.81533 27.2426 4.072C27.3746 4.32133 27.47 4.611 27.5286 4.941L27.5616 4.93V1.597C27.5616 1.29633 27.6496 1.04333 27.8256 0.838C28.009 0.625333 28.273 0.519 28.6176 0.519C28.955 0.519 29.2043 0.625333 29.3656 0.838C29.5343 1.04333 29.6186 1.30367 29.6186 1.619V6.569C29.6186 6.81833 29.637 7.04933 29.6736 7.262C29.7176 7.46733 29.7506 7.67267 29.7726 7.878C29.7946 8.15667 29.736 8.39867 29.5966 8.604C29.4646 8.802 29.2263 8.93033 28.8816 8.989C28.4343 9.06233 28.1006 8.98533 27.8806 8.758C27.668 8.53067 27.5616 8.19333 27.5616 7.746V7.339H27.3526C27.3526 7.87433 27.217 8.285 26.9456 8.571C26.6816 8.857 26.3223 9 25.8676 9ZM25.7026 5.953C25.7026 6.18033 25.7723 6.349 25.9116 6.459C26.051 6.569 26.3003 6.624 26.6596 6.624C27.0263 6.624 27.2793 6.569 27.4186 6.459C27.558 6.349 27.6276 6.18033 27.6276 5.953C27.6276 5.71833 27.558 5.54967 27.4186 5.447C27.2866 5.337 27.0373 5.282 26.6706 5.282C26.304 5.282 26.051 5.337 25.9116 5.447C25.7723 5.54967 25.7026 5.71833 25.7026 5.953ZM32.6628 3.434C32.2961 3.434 31.9954 3.32767 31.7608 3.115C31.5334 2.90233 31.4198 2.609 31.4198 2.235C31.4198 1.86833 31.5224 1.575 31.7278 1.355C31.9404 1.12767 32.2521 1.014 32.6628 1.014H37.4038C37.8144 1.014 38.1224 1.12767 38.3278 1.355C38.5404 1.575 38.6468 1.86833 38.6468 2.235C38.6468 2.609 38.5294 2.90233 38.2948 3.115C38.0674 3.32767 37.7704 3.434 37.4038 3.434C37.1544 3.434 36.9528 3.40833 36.7988 3.357C36.6521 3.29833 36.5311 3.23233 36.4358 3.159C36.3404 3.07833 36.2488 3.01233 36.1608 2.961C36.0728 2.90233 35.9628 2.873 35.8308 2.873L35.7318 3.071C35.7611 3.137 35.8124 3.23233 35.8858 3.357C35.9591 3.47433 36.0288 3.64667 36.0948 3.874C36.1608 4.094 36.1938 4.39467 36.1938 4.776V7.955C36.1938 8.25567 36.0801 8.505 35.8528 8.703C35.6328 8.901 35.3614 9 35.0388 9C34.7088 9 34.4301 8.901 34.2028 8.703C33.9828 8.505 33.8728 8.25567 33.8728 7.955V4.776C33.8728 4.39467 33.9058 4.094 33.9718 3.874C34.0378 3.64667 34.1074 3.47433 34.1808 3.357C34.2614 3.23233 34.3164 3.137 34.3458 3.071L34.2358 2.873C34.1038 2.873 33.9938 2.90233 33.9058 2.961C33.8178 3.01233 33.7261 3.07833 33.6308 3.159C33.5354 3.23233 33.4144 3.29833 33.2678 3.357C33.1211 3.40833 32.9194 3.434 32.6628 3.434ZM39.9638 11.266C39.4724 11.266 39.0691 11.1853 38.7538 11.024C38.4458 10.8627 38.2038 10.65 38.0278 10.386C37.8811 10.1587 37.7968 9.92033 37.7748 9.671C37.7601 9.42167 37.8078 9.19067 37.9178 8.978C38.0278 8.758 38.1928 8.58933 38.4128 8.472C38.6401 8.34733 38.8674 8.29967 39.0948 8.329C39.3221 8.351 39.5311 8.43533 39.7218 8.582C39.9124 8.72133 40.0591 8.90467 40.1618 9.132C40.2718 9.374 40.3818 9.55 40.4918 9.66C40.6091 9.77733 40.7594 9.803 40.9428 9.737C41.1188 9.67833 41.1811 9.517 41.1298 9.253C41.0858 8.989 40.9904 8.67733 40.8438 8.318H40.4368C40.1214 8.318 39.8061 8.20433 39.4908 7.977C39.1754 7.74967 38.9114 7.39033 38.6988 6.899L37.7968 4.809C37.6574 4.479 37.6428 4.17467 37.7528 3.896C37.8701 3.61733 38.0791 3.41567 38.3798 3.291C38.6584 3.16633 38.9334 3.159 39.2048 3.269C39.4761 3.379 39.6888 3.61367 39.8428 3.973L40.6788 5.92C40.8181 6.23533 40.9684 6.46267 41.1298 6.602C41.2984 6.74133 41.4744 6.76333 41.6578 6.668C41.8191 6.58 41.9071 6.459 41.9218 6.305C41.9364 6.14367 41.8594 5.94933 41.6908 5.722C41.6174 5.61933 41.5294 5.50567 41.4268 5.381C41.3314 5.25633 41.2434 5.11333 41.1628 4.952C41.0894 4.78333 41.0528 4.59633 41.0528 4.391C41.0528 4.04633 41.1701 3.764 41.4048 3.544C41.6394 3.31667 41.9474 3.203 42.3288 3.203C42.6734 3.203 42.9484 3.313 43.1538 3.533C43.3664 3.753 43.4728 4.039 43.4728 4.391C43.4728 4.64033 43.4434 4.91533 43.3848 5.216C43.3261 5.51667 43.2601 5.79533 43.1868 6.052L42.3948 8.945C42.2774 9.37767 42.1234 9.77 41.9328 10.122C41.7421 10.474 41.4891 10.7527 41.1738 10.958C40.8584 11.1633 40.4551 11.266 39.9638 11.266ZM47.3772 9C46.9738 9 46.6365 8.87533 46.3652 8.626C46.1012 8.37667 45.9325 8.054 45.8592 7.658H45.6612V10.188C45.6612 10.4887 45.5768 10.7417 45.4082 10.947C45.2395 11.1597 44.9828 11.266 44.6382 11.266C44.3082 11.266 44.0515 11.1597 43.8682 10.947C43.6922 10.7417 43.6042 10.4813 43.6042 10.166V6.052C43.6042 5.68533 43.5895 5.37733 43.5602 5.128C43.5382 4.87133 43.5162 4.64033 43.4942 4.435C43.4648 4.127 43.5272 3.86667 43.6812 3.654C43.8352 3.434 44.0845 3.302 44.4292 3.258C44.8765 3.19933 45.1918 3.28 45.3752 3.5C45.5658 3.71267 45.6612 4.04633 45.6612 4.501V5.029L45.7052 5.04C45.7418 4.754 45.8262 4.47533 45.9582 4.204C46.0975 3.92533 46.2918 3.698 46.5412 3.522C46.7905 3.33867 47.1058 3.247 47.4872 3.247C48.1252 3.247 48.5982 3.50367 48.9062 4.017C49.2215 4.523 49.3792 5.20133 49.3792 6.052C49.3792 8.01733 48.7118 9 47.3772 9ZM45.6172 6.03C45.6172 6.14733 45.6318 6.239 45.6612 6.305C45.7052 6.44433 45.7968 6.547 45.9362 6.613C46.0828 6.67167 46.2992 6.701 46.5852 6.701C46.9518 6.701 47.2012 6.646 47.3332 6.536C47.4725 6.426 47.5422 6.25733 47.5422 6.03C47.5422 5.79533 47.4762 5.62667 47.3442 5.524C47.2122 5.414 46.9628 5.359 46.5962 5.359C46.3028 5.359 46.0828 5.392 45.9362 5.458C45.7968 5.51667 45.7052 5.61567 45.6612 5.755C45.6318 5.821 45.6172 5.91267 45.6172 6.03ZM49.4471 6.14C49.4471 5.56067 49.5607 5.051 49.7881 4.611C50.0227 4.171 50.3527 3.82633 50.7781 3.577C51.2107 3.32767 51.7241 3.203 52.3181 3.203C52.7801 3.203 53.1944 3.28733 53.5611 3.456C53.9351 3.62467 54.2284 3.852 54.4411 4.138C54.6537 4.41667 54.7601 4.72467 54.7601 5.062C54.7601 5.414 54.6574 5.66333 54.4521 5.81C54.2467 5.95667 53.9424 6.03 53.5391 6.03H51.2291C51.2291 6.22067 51.3024 6.37833 51.4491 6.503C51.6031 6.62767 51.8597 6.69 52.2191 6.69C52.4024 6.69 52.5711 6.67167 52.7251 6.635C52.8864 6.59833 53.0477 6.56533 53.2091 6.536C53.3777 6.49933 53.5647 6.481 53.7701 6.481C54.0634 6.481 54.3054 6.58733 54.4961 6.8C54.6867 7.00533 54.7821 7.29133 54.7821 7.658C54.7821 8.09067 54.5584 8.428 54.1111 8.67C53.6711 8.912 53.0917 9.033 52.3731 9.033C51.8671 9.033 51.3904 8.934 50.9431 8.736C50.5031 8.538 50.1437 8.22633 49.8651 7.801C49.5864 7.36833 49.4471 6.81467 49.4471 6.14ZM53.0111 5.667C53.1211 5.667 53.1577 5.61567 53.1211 5.513C53.0917 5.41033 53.0037 5.304 52.8571 5.194C52.7104 5.084 52.4977 5.029 52.2191 5.029C51.8964 5.029 51.6544 5.09867 51.4931 5.238C51.3391 5.37733 51.2621 5.52033 51.2621 5.667H53.0111ZM56.3041 9.209C55.8714 9.209 55.5341 9.09533 55.2921 8.868C55.0501 8.63333 54.9291 8.32533 54.9291 7.944C54.9291 7.55533 55.0538 7.24 55.3031 6.998C55.5524 6.756 55.8861 6.635 56.3041 6.635C56.7148 6.635 57.0411 6.756 57.2831 6.998C57.5324 7.23267 57.6571 7.54433 57.6571 7.933C57.6571 8.31433 57.5398 8.62233 57.3051 8.857C57.0704 9.09167 56.7368 9.209 56.3041 9.209ZM59.2397 9.209C58.8071 9.209 58.4697 9.09533 58.2277 8.868C57.9857 8.63333 57.8647 8.32533 57.8647 7.944C57.8647 7.55533 57.9894 7.24 58.2387 6.998C58.4881 6.756 58.8217 6.635 59.2397 6.635C59.6504 6.635 59.9767 6.756 60.2187 6.998C60.4681 7.23267 60.5927 7.54433 60.5927 7.933C60.5927 8.31433 60.4754 8.62233 60.2407 8.857C60.0061 9.09167 59.6724 9.209 59.2397 9.209ZM62.1754 9.209C61.7427 9.209 61.4054 9.09533 61.1634 8.868C60.9214 8.63333 60.8004 8.32533 60.8004 7.944C60.8004 7.55533 60.925 7.24 61.1744 6.998C61.4237 6.756 61.7574 6.635 62.1754 6.635C62.586 6.635 62.9124 6.756 63.1544 6.998C63.4037 7.23267 63.5284 7.54433 63.5284 7.933C63.5284 8.31433 63.411 8.62233 63.1764 8.857C62.9417 9.09167 62.608 9.209 62.1754 9.209Z" fill="white"/>
</svg>
