<svg width="58" height="56" viewBox="0 0 58 56" fill="none" xmlns="http://www.w3.org/2000/svg">
<g filter="url(#filter0_d_367_2158)">
<rect x="6" y="2" width="45.7212" height="44.6743" rx="12" fill="#0028FF"/>
</g>
<path d="M39.2891 19.8125H18.5859C18.2624 19.8125 18 19.5501 18 19.2266V17.4688C18 16.1743 19.0493 15.125 20.3438 15.125H22.6875V12.5859C22.6875 12.2624 22.9499 12 23.2734 12H25.2266C25.5501 12 25.8125 12.2624 25.8125 12.5859V15.125H32.0625V12.5859C32.0625 12.2624 32.3249 12 32.6484 12H34.6016C34.9251 12 35.1875 12.2624 35.1875 12.5859V15.125H37.5312C38.8257 15.125 39.875 16.1743 39.875 17.4688V19.2266C39.875 19.5501 39.6126 19.8125 39.2891 19.8125ZM18.5859 21.375H39.2891C39.6126 21.375 39.875 21.6374 39.875 21.9609V34.6562C39.875 35.9507 38.8257 37 37.5312 37H20.3438C19.0493 37 18 35.9507 18 34.6562V21.9609C18 21.6374 18.2624 21.375 18.5859 21.375ZM34.8602 26.0599L33.4847 24.6733C33.2568 24.4436 32.8858 24.442 32.6561 24.67L27.4785 29.8059L25.2334 27.5426C25.0055 27.3129 24.6345 27.3114 24.4047 27.5393L23.0182 28.9148C22.7884 29.1427 22.7869 29.5137 23.0148 29.7434L27.0481 33.8093C27.276 34.039 27.647 34.0405 27.8767 33.8126L34.8568 26.8885C35.0866 26.6606 35.0881 26.2896 34.8602 26.0599Z" fill="white"/>
<defs>
<filter id="filter0_d_367_2158" x="0.5" y="-2.38419e-07" width="56.7212" height="55.6743" filterUnits="userSpaceOnUse" color-interpolation-filters="sRGB">
<feFlood flood-opacity="0" result="BackgroundImageFix"/>
<feColorMatrix in="SourceAlpha" type="matrix" values="0 0 0 0 0 0 0 0 0 0 0 0 0 0 0 0 0 0 127 0" result="hardAlpha"/>
<feOffset dy="3.5"/>
<feGaussianBlur stdDeviation="2.75"/>
<feColorMatrix type="matrix" values="0 0 0 0 0 0 0 0 0 0 0 0 0 0 0 0 0 0 0.02 0"/>
<feBlend mode="normal" in2="BackgroundImageFix" result="effect1_dropShadow_367_2158"/>
<feBlend mode="normal" in="SourceGraphic" in2="effect1_dropShadow_367_2158" result="shape"/>
</filter>
</defs>
</svg>
